<?xml version="1.0" encoding="UTF-8"?>
<svg version="1.1" xmlns="http://www.w3.org/2000/svg" width="32" height="32">
<path d="M0 0 C1.65 0 3.3 0 5 0 C5 2.31 5 4.62 5 7 C5.99 7 6.98 7 8 7 C8.99 9.64 9.98 12.28 11 15 C11.99 12.36 12.98 9.72 14 7 C15.65 7 17.3 7 19 7 C19.99 9.64 20.98 12.28 22 15 C22.99 12.36 23.98 9.72 25 7 C26.65 7 28.3 7 30 7 C29.65013349 14.9069831 27.68128046 21.56160904 25 29 C16.75 29 8.5 29 0 29 C0 19.43 0 9.86 0 0 Z M5 19 C5 20.65 5 22.3 5 24 C5.66 24 6.32 24 7 24 C6.67 22.35 6.34 20.7 6 19 C5.67 19 5.34 19 5 19 Z M16 20 C15.67 21.32 15.34 22.64 15 24 C15.99 24 16.98 24 18 24 C17.67 22.68 17.34 21.36 17 20 C16.67 20 16.34 20 16 20 Z " fill="#00B286" transform="translate(1,2)"/>
<path d="M0 0 C1.65 0 3.3 0 5 0 C5 2.31 5 4.62 5 7 C4.34 7 3.68 7 3 7 C3.144375 7.556875 3.28875 8.11375 3.4375 8.6875 C4.71546672 13.94136317 5.19646963 18.59708529 5 24 C5.99 24 6.98 24 8 24 C8.33 25.65 8.66 27.3 9 29 C6.03 29 3.06 29 0 29 C0 19.43 0 9.86 0 0 Z " fill="#058A00" transform="translate(1,2)"/>
<path d="M0 0 C0.99 0 1.98 0 3 0 C5.31993846 7.28640866 7.47536437 14.50387484 9 22 C8.01 22 7.02 22 6 22 C4.98749225 19.46270379 3.98990427 16.92110512 3 14.375 C2.71382813 13.66214844 2.42765625 12.94929688 2.1328125 12.21484375 C0.50100944 7.97992628 -0.34956986 4.61723525 0 0 Z " fill="#008D6B" transform="translate(4,9)"/>
<path d="M0 0 C3.97097416 3.36172881 4.06494135 7.0369964 5 12 C2.03 12 -0.94 12 -4 12 C-3.67 10.35 -3.34 8.7 -3 7 C-2.01 7 -1.02 7 0 7 C-0.185625 6.030625 -0.37125 5.06125 -0.5625 4.0625 C-0.706875 3.051875 -0.85125 2.04125 -1 1 C-0.67 0.67 -0.34 0.34 0 0 Z " fill="#008B69" transform="translate(19,19)"/>
<path d="M0 0 C0.99 0 1.98 0 3 0 C2.71640113 1.4391134 2.42278601 2.87625518 2.125 4.3125 C1.96257813 5.11300781 1.80015625 5.91351563 1.6328125 6.73828125 C1 9 1 9 -1 12 C-1.66 11.01 -2.32 10.02 -3 9 C-2.5390625 6.73828125 -2.5390625 6.73828125 -1.625 4.3125 C-1.32851563 3.50425781 -1.03203125 2.69601563 -0.7265625 1.86328125 C-0.48679687 1.24839844 -0.24703125 0.63351562 0 0 Z " fill="#00906D" transform="translate(26,9)"/>
<path d="M0 0 C0.99 0 1.98 0 3 0 C2.71640113 1.4391134 2.42278601 2.87625518 2.125 4.3125 C1.96257813 5.11300781 1.80015625 5.91351563 1.6328125 6.73828125 C1 9 1 9 -1 12 C-1.66 11.01 -2.32 10.02 -3 9 C-2.5390625 6.73828125 -2.5390625 6.73828125 -1.625 4.3125 C-1.32851562 3.50425781 -1.03203125 2.69601563 -0.7265625 1.86328125 C-0.48679687 1.24839844 -0.24703125 0.63351562 0 0 Z " fill="#008F6D" transform="translate(15,9)"/>
<path d="M0 0 C1.32 0 2.64 0 4 0 C4.33 1.65 4.66 3.3 5 5 C3.02 5 1.04 5 -1 5 C-0.67 3.35 -0.34 1.7 0 0 Z " fill="#017E00" transform="translate(16,26)"/>
</svg>
